<mxfile host="app.diagrams.net" agent="Mozilla/5.0 (Windows NT 10.0; Win64; x64) AppleWebKit/537.36 (KHTML, like Gecko) Chrome/133.0.0.0 Safari/537.36 Edg/133.0.0.0" version="26.1.0">
  <diagram id="C5RBs43oDa-KdzZeNtuy" name="Page-1">
    <mxGraphModel dx="2072" dy="759" grid="1" gridSize="10" guides="1" tooltips="1" connect="1" arrows="1" fold="1" page="1" pageScale="1" pageWidth="827" pageHeight="1169" math="0" shadow="0">
      <root>
        <mxCell id="WIyWlLk6GJQsqaUBKTNV-0" />
        <mxCell id="WIyWlLk6GJQsqaUBKTNV-1" parent="WIyWlLk6GJQsqaUBKTNV-0" />
        <mxCell id="zkfFHV4jXpPFQw0GAbJ--17" value="FlightMechanism" style="swimlane;fontStyle=0;align=center;verticalAlign=top;childLayout=stackLayout;horizontal=1;startSize=26;horizontalStack=0;resizeParent=1;resizeLast=0;collapsible=1;marginBottom=0;rounded=0;shadow=0;strokeWidth=1;" parent="WIyWlLk6GJQsqaUBKTNV-1" vertex="1">
          <mxGeometry x="-200" y="180" width="472" height="200" as="geometry">
            <mxRectangle x="-2" y="180" width="160" height="26" as="alternateBounds" />
          </mxGeometry>
        </mxCell>
        <mxCell id="zkfFHV4jXpPFQw0GAbJ--19" value="-newCards: Deck[]&#xa;-usedCards: Deck[]&#xa;" style="text;align=left;verticalAlign=top;spacingLeft=4;spacingRight=4;overflow=hidden;rotatable=0;points=[[0,0.5],[1,0.5]];portConstraint=eastwest;rounded=0;shadow=0;html=0;" parent="zkfFHV4jXpPFQw0GAbJ--17" vertex="1">
          <mxGeometry y="26" width="472" height="54" as="geometry" />
        </mxCell>
        <mxCell id="zkfFHV4jXpPFQw0GAbJ--23" value="" style="line;html=1;strokeWidth=1;align=left;verticalAlign=middle;spacingTop=-1;spacingLeft=3;spacingRight=3;rotatable=0;labelPosition=right;points=[];portConstraint=eastwest;" parent="zkfFHV4jXpPFQw0GAbJ--17" vertex="1">
          <mxGeometry y="80" width="472" height="20" as="geometry" />
        </mxCell>
        <mxCell id="pxoufbot8qxQPVuUizvH-9" value="&lt;div&gt;&lt;div&gt;+startFlightMechanism(deck: Deck)&lt;/div&gt;&lt;/div&gt;&lt;div&gt;-shuffleCards(deck: Deck): Deck&lt;/div&gt;&lt;div&gt;-getNewCard(deck: Deck): Card&lt;/div&gt;&lt;div&gt;-executeCard(card: Card)&lt;/div&gt;&lt;div&gt;-endFlightMechanism()&lt;/div&gt;&lt;div&gt;&amp;nbsp;&lt;/div&gt;" style="text;html=1;align=left;verticalAlign=middle;whiteSpace=wrap;rounded=0;" vertex="1" parent="zkfFHV4jXpPFQw0GAbJ--17">
          <mxGeometry y="100" width="472" height="100" as="geometry" />
        </mxCell>
        <mxCell id="pxoufbot8qxQPVuUizvH-7" value="&lt;div&gt;2 singletons (1 instance of the class)&lt;/div&gt;&lt;div&gt;use .this to modify attributes of the class instances&lt;/div&gt;&lt;div&gt;&lt;br&gt;&lt;/div&gt;&lt;div&gt;FlightBoard:&lt;/div&gt;numberOfTiles final int to remember the constant number of tiles on the board&lt;div&gt;&lt;br&gt;&lt;/div&gt;&lt;div&gt;Order: position in order&lt;/div&gt;&lt;div&gt;Tile: position on board&lt;/div&gt;&lt;div&gt;&lt;br&gt;&lt;/div&gt;&lt;div&gt;Player order is updated based solely on player tiles&lt;/div&gt;&lt;div&gt;&lt;br&gt;&lt;/div&gt;&lt;div&gt;FlightMechanism:&lt;/div&gt;&lt;div&gt;If no new card available, end flight&lt;/div&gt;&lt;div&gt;&lt;br&gt;&lt;/div&gt;" style="text;html=1;align=center;verticalAlign=middle;whiteSpace=wrap;rounded=0;" vertex="1" parent="WIyWlLk6GJQsqaUBKTNV-1">
          <mxGeometry x="300" y="140" width="300" height="290" as="geometry" />
        </mxCell>
        <mxCell id="pxoufbot8qxQPVuUizvH-11" value="FlightBoard" style="swimlane;fontStyle=0;align=center;verticalAlign=top;childLayout=stackLayout;horizontal=1;startSize=26;horizontalStack=0;resizeParent=1;resizeLast=0;collapsible=1;marginBottom=0;rounded=0;shadow=0;strokeWidth=1;" vertex="1" parent="WIyWlLk6GJQsqaUBKTNV-1">
          <mxGeometry x="-650" y="180" width="300" height="230" as="geometry">
            <mxRectangle x="-2" y="180" width="160" height="26" as="alternateBounds" />
          </mxGeometry>
        </mxCell>
        <mxCell id="pxoufbot8qxQPVuUizvH-12" value="-numberOfTiles: int {readOnly}&#xa;-playerTilesMap: Map&lt;Player, Integer&gt;&#xa;-playerOrderList: Player[4]" style="text;align=left;verticalAlign=top;spacingLeft=4;spacingRight=4;overflow=hidden;rotatable=0;points=[[0,0.5],[1,0.5]];portConstraint=eastwest;rounded=0;shadow=0;html=0;" vertex="1" parent="pxoufbot8qxQPVuUizvH-11">
          <mxGeometry y="26" width="300" height="54" as="geometry" />
        </mxCell>
        <mxCell id="pxoufbot8qxQPVuUizvH-13" value="" style="line;html=1;strokeWidth=1;align=left;verticalAlign=middle;spacingTop=-1;spacingLeft=3;spacingRight=3;rotatable=0;labelPosition=right;points=[];portConstraint=eastwest;" vertex="1" parent="pxoufbot8qxQPVuUizvH-11">
          <mxGeometry y="80" width="300" height="20" as="geometry" />
        </mxCell>
        <mxCell id="pxoufbot8qxQPVuUizvH-14" value="+createFlightBoard(numberOfTiles: int): FlightBoard&lt;div&gt;+setPlayerTile(player: Player, tile: int)&lt;/div&gt;&lt;div&gt;+incrementPlayerTile(player: Player, tiles: int)&lt;/div&gt;&lt;div&gt;+getPlayerTile(player: Player): int&lt;br&gt;&lt;div&gt;&lt;div&gt;+getPlayerInOrder(order: int): Player&lt;/div&gt;&lt;div&gt;+updatePlayerOrder()&lt;/div&gt;&lt;div&gt;+checkLappedPlayer(): Player&lt;/div&gt;&lt;/div&gt;&lt;div&gt;+eliminatePlayer(player: Player)&lt;/div&gt;&lt;div&gt;&lt;br&gt;&lt;/div&gt;&lt;/div&gt;" style="text;html=1;align=left;verticalAlign=middle;whiteSpace=wrap;rounded=0;" vertex="1" parent="pxoufbot8qxQPVuUizvH-11">
          <mxGeometry y="100" width="300" height="130" as="geometry" />
        </mxCell>
        <mxCell id="pxoufbot8qxQPVuUizvH-18" value="Use" style="endArrow=open;endSize=12;dashed=1;html=1;rounded=0;entryX=1;entryY=0.5;entryDx=0;entryDy=0;exitX=0;exitY=0.5;exitDx=0;exitDy=0;" edge="1" parent="WIyWlLk6GJQsqaUBKTNV-1" source="zkfFHV4jXpPFQw0GAbJ--19" target="pxoufbot8qxQPVuUizvH-12">
          <mxGeometry width="160" relative="1" as="geometry">
            <mxPoint x="-200" y="230" as="sourcePoint" />
            <mxPoint x="-40" y="230" as="targetPoint" />
          </mxGeometry>
        </mxCell>
      </root>
    </mxGraphModel>
  </diagram>
</mxfile>
